HIERARCHY
ROOT Hips
{
	OFFSET 0.00000 0.00000 0.00000
	CHANNELS 6 Xposition Yposition Zposition Zrotation Yrotation Xrotation 
	JOINT LHipJoint
	{
		OFFSET 0 0 0
		CHANNELS 3 Zrotation Yrotation Xrotation
		JOINT LeftHip
		{
			OFFSET 1.28858 -1.83292 1.03970
			CHANNELS 3 Zrotation Yrotation Xrotation
			JOINT LeftKnee
			{
				OFFSET 2.47846 -6.80952 0.00000
				CHANNELS 3 Zrotation Yrotation Xrotation
				JOINT LeftAnkle
				{
					OFFSET 2.75274 -7.56311 0.00000
					CHANNELS 3 Zrotation Yrotation Xrotation
					JOINT LeftToe
					{
						OFFSET 0.12848 -0.35301 1.68223
						CHANNELS 3 Zrotation Yrotation Xrotation
						End Site
						{
							OFFSET 0.00000 -0.00000 0.87311
						}
					}
				}
			}
		}
	}
	JOINT RHipJoint
	{
		OFFSET 0 0 0
		CHANNELS 3 Zrotation Yrotation Xrotation
		JOINT RightHip
		{
			OFFSET -1.31183 -1.83292 1.03970
			CHANNELS 3 Zrotation Yrotation Xrotation
			JOINT RightKnee
			{
				OFFSET -2.44740 -6.72417 0.00000
				CHANNELS 3 Zrotation Yrotation Xrotation
				JOINT RightAnkle
				{
					OFFSET -2.67343 -7.34519 0.00000
					CHANNELS 3 Zrotation Yrotation Xrotation
					JOINT RightToe
					{
						OFFSET -0.16914 -0.46471 1.77626
						CHANNELS 3 Zrotation Yrotation Xrotation
						End Site
						{
							OFFSET -0.00000 -0.00000 0.92777
						}
					}
				}
			}
		}
	}
	JOINT lowerback
	{
		OFFSET 0 0 0
		CHANNELS 3 Zrotation Yrotation Xrotation
		JOINT Chest
		{
			OFFSET 0.01249 2.14252 0.03842
			CHANNELS 3 Zrotation Yrotation Xrotation
			JOINT Chest2
			{
				OFFSET -0.02957 2.14199 -0.03751
				CHANNELS 3 Zrotation Yrotation Xrotation
				JOINT lowerneck
				{
					OFFSET 0 0 0
					CHANNELS 3 Zrotation Yrotation Xrotation
					JOINT Neck
					{
						OFFSET -0.01678 1.65709 -0.05476
						CHANNELS 3 Zrotation Yrotation Xrotation
						JOINT Head
						{
							OFFSET 0.07912 1.58331 -0.11843
							CHANNELS 3 Zrotation Yrotation Xrotation
							End Site
							{
								OFFSET 0.03298 1.73940 -0.04271
							}
						}
					}
				}
				JOINT LeftCollar
				{
					OFFSET 0 0 0
					CHANNELS 3 Zrotation Yrotation Xrotation
					JOINT LeftShoulder
					{
						OFFSET 3.39556 1.16496 0.08673
CHANNELS 3 Zrotation Xrotation Yrotation
						JOINT LeftElbow
						{
OFFSET 0 -5.239100 -0.000000
CHANNELS 3 Zrotation Xrotation Yrotation
							JOINT LeftWrist
							{
OFFSET 0 -3.314670 0.000000
CHANNELS 3 Zrotation Xrotation Yrotation
								JOINT lhand
								{
									OFFSET 0 0 0
CHANNELS 3 Zrotation Xrotation Yrotation
									JOINT LFingers
									{
OFFSET 0 -0.965900 0.000000
CHANNELS 3 Zrotation Xrotation Yrotation
										End Site
										{
OFFSET 0 -0.778730 0.000000
										}
									}
								}
								JOINT LThumb
								{
OFFSET 0 0.000000 0.000000
CHANNELS 3 Zrotation Xrotation Yrotation
									End Site
									{
OFFSET 0 -0.790620 0.790620
									}
								}
							}
						}
					}
				}
				JOINT RightCollar
				{
					OFFSET 0 0 0
					CHANNELS 3 Zrotation Yrotation Xrotation
					JOINT RightShoulder
					{
						OFFSET -3.27193 1.31331 0.33940
CHANNELS 3 Zrotation Xrotation Yrotation
						JOINT RightElbow
						{
OFFSET 0 -5.302520 0.000000
CHANNELS 3 Zrotation Xrotation Yrotation
							JOINT RightWrist
							{
OFFSET 0 -3.678750 0.000000
CHANNELS 3 Zrotation Xrotation Yrotation
								JOINT rhand
								{
									OFFSET 0 0 0
CHANNELS 3 Zrotation Xrotation Yrotation
									JOINT RFingers
									{
OFFSET 0 -0.594810 0.000000
CHANNELS 3 Zrotation Xrotation Yrotation
										End Site
										{
OFFSET 0 -0.479550 0.000000
										}
									}
								}
								JOINT RThumb
								{
OFFSET 0 0.000000 0.000000
CHANNELS 3 Zrotation Xrotation Yrotation
									End Site
									{
OFFSET 0 -0.486870 0.486870
									}
								}
							}
						}
					}
				}
			}
		}
	}
}
MOTION
Frames: 10
Frame Time: 0.008333333333333333
8.429206 18.176758 -14.588964 -181.118871 -14.966495 -167.220132 0.000000 0.000000 0.000000 -24.621198 6.311304 -26.221751 0.567893 4.826063 13.413174 1.178904 -14.388550 30.174496 3.403272 11.319926 33.367787 0.000000 0.000000 0.000000 18.547384 -2.301977 -36.237109 -8.576943 -16.527579 54.615083 -0.428348 -11.316421 13.168226 -0.082366 -1.848680 5.087655 4.003973 5.183360 4.060226 -4.434670 6.829511 3.609817 -6.933248 3.505291 2.507219 4.720682 20.778553 5.250782 -9.142353 27.795312 -4.997835 -3.706501 14.069073 -0.427573 0.000000 0.000000 0.000000 15.267099 -6.320291 -64.185579 54.685407 -54.716731 29.959523 25.969080 -22.156772 18.055673 0.000000 0.000000 0.000000 -7.125000 0.000000 0.000000 -1.360962 10.053191 -1.102775 0.000000 0.000000 0.000000 -15.657182 9.658440 40.293809 -25.994505 -37.203266 -8.884358 -1.112185 -2.340346 28.324291 0.000000 0.000000 0.000000 7.125000 0.000000 0.000000 31.302949 55.411969 -8.613527
8.421282 18.185794 -14.479896 -181.561716 -15.573722 -167.436466 0.000000 0.000000 0.000000 -24.816720 6.619349 -25.120537 0.576527 4.862432 13.516631 1.182753 -14.864471 30.644135 3.522383 11.495993 33.971633 0.000000 0.000000 0.000000 17.987314 -2.845317 -36.453386 -8.662865 -16.585793 54.916588 -0.429650 -11.193113 13.135321 -0.078049 -1.801000 4.956078 3.920257 5.087550 3.954305 -4.640738 6.683068 3.772439 -7.088206 3.435716 2.731307 4.784614 20.791803 5.444489 -8.993504 27.823381 -5.062939 -3.702582 14.081191 -0.492972 0.000000 0.000000 0.000000 14.766994 -6.931371 -64.204088 53.181843 -54.198973 28.735960 26.050453 -22.106912 18.151304 0.000000 0.000000 0.000000 -7.125000 0.000000 0.000000 -1.317391 9.936207 -1.070555 0.000000 0.000000 0.000000 -15.302395 10.531899 39.755147 -25.977470 -37.186470 -8.874058 -1.779943 -1.517393 28.326569 0.000000 0.000000 0.000000 7.125000 0.000000 0.000000 30.671331 55.544220 -8.516204
8.479345 18.152734 -14.274941 -181.181003 -14.808816 -167.119025 0.000000 0.000000 0.000000 -23.333496 4.140990 -24.249241 0.593616 4.932479 13.716203 0.600067 -14.992042 26.652559 2.972013 10.649208 31.106090 0.000000 0.000000 0.000000 18.199209 -0.091267 -37.442447 -8.784755 -16.667168 55.342687 -0.348501 -12.441232 12.806783 -0.055885 -1.524343 4.192919 3.826871 5.475914 4.625375 -4.779379 7.214833 3.324390 -7.268493 3.677338 1.978575 4.815172 20.788480 5.538549 -8.754450 27.829085 -5.064407 -3.653755 14.077381 -0.541281 0.000000 0.000000 0.000000 14.429723 -7.495934 -64.442875 52.004243 -53.772469 27.782953 26.015619 -22.168464 18.130248 0.000000 0.000000 0.000000 -7.125000 0.000000 0.000000 -1.337985 9.964709 -1.086630 0.000000 0.000000 0.000000 -14.868558 11.469556 39.023926 -25.974982 -37.183996 -8.872544 -2.328140 -0.975672 28.378523 0.000000 0.000000 0.000000 7.125000 0.000000 0.000000 30.188811 55.696401 -8.479128
8.418737 18.169191 -14.220866 -181.970082 -16.376613 -167.619192 0.000000 0.000000 0.000000 -23.928983 4.082535 -22.227885 0.613974 5.014830 13.950854 0.623408 -15.635427 27.502984 3.298775 11.160005 32.825723 0.000000 0.000000 0.000000 17.291924 -2.745407 -37.188511 -8.817706 -16.688895 55.457363 -0.432017 -11.019241 13.096694 -0.033803 -1.186189 3.261371 4.030353 5.042062 3.830760 -4.948987 6.609882 3.909042 -7.461350 3.411576 2.987589 4.764877 20.856283 5.584838 -8.802828 27.913308 -5.123762 -3.669713 14.123157 -0.561909 0.000000 0.000000 0.000000 14.103059 -7.805690 -64.449422 51.270835 -53.494287 27.192641 26.018137 -22.402039 18.507870 0.000000 0.000000 0.000000 -7.125000 0.000000 0.000000 -1.374470 9.554185 -1.127629 0.000000 0.000000 0.000000 -14.712781 12.193354 38.576522 -25.861605 -37.071749 -8.804117 -2.881464 -0.753843 28.620728 0.000000 0.000000 0.000000 7.125000 0.000000 0.000000 29.843996 56.014800 -8.607213
8.427588 18.167021 -14.072251 -182.106596 -16.568753 -167.593556 0.000000 0.000000 0.000000 -23.250718 1.910369 -20.497660 0.623239 5.051827 14.056428 0.161314 -16.134878 24.352027 2.916200 10.555993 30.798793 0.000000 0.000000 0.000000 17.030797 -2.200260 -37.670942 -8.876962 -16.727909 55.663785 -0.412016 -11.366890 13.016926 -0.033902 -1.185257 3.258817 3.979522 5.057712 3.841185 -5.035062 6.624666 3.942887 -7.523720 3.418483 3.025220 4.518393 20.920457 5.595395 -8.693580 27.979228 -5.245770 -3.627046 14.156959 -0.649974 0.000000 0.000000 0.000000 13.647049 -8.316675 -64.507779 50.113183 -53.038836 26.265151 26.034709 -22.401906 18.861136 0.000000 0.000000 0.000000 -7.125000 0.000000 0.000000 -1.399992 9.167985 -1.159328 0.000000 0.000000 0.000000 -14.426269 12.939756 37.683883 -25.857869 -37.067957 -8.801841 -3.310558 -0.368166 28.848801 0.000000 0.000000 0.000000 7.125000 0.000000 0.000000 29.606949 56.297748 -8.739394
8.426230 18.172217 -13.931558 -182.014384 -16.956522 -167.751331 0.000000 0.000000 0.000000 -22.548430 0.237227 -18.781384 0.623789 5.054004 14.062626 -0.074430 -16.215863 22.250458 2.713599 10.215717 29.678600 0.000000 0.000000 0.000000 16.987269 -1.989749 -38.027140 -8.917448 -16.754304 55.804287 -0.401818 -11.505724 12.964569 -0.020584 -0.916436 2.519010 4.389194 5.060013 4.043305 -5.152758 6.644229 3.857708 -7.904494 3.439467 2.893549 4.391858 20.935139 5.626485 -8.303365 28.003682 -5.096735 -3.502350 14.158702 -0.682084 0.000000 0.000000 0.000000 13.440946 -8.577689 -64.876701 49.190861 -52.663424 25.529474 26.107212 -22.470448 18.935318 0.000000 0.000000 0.000000 -7.125000 0.000000 0.000000 -1.360758 9.075423 -1.129404 0.000000 0.000000 0.000000 -13.879310 14.008139 36.702434 -25.891038 -37.100901 -8.821823 -3.814861 -0.422205 29.168014 0.000000 0.000000 0.000000 7.125000 0.000000 0.000000 29.368111 56.676532 -8.936713
8.432278 18.178373 -13.787481 -182.211863 -17.334030 -167.773437 0.000000 0.000000 0.000000 -22.175671 -1.609946 -17.174310 0.634709 5.097203 14.186020 -0.230219 -16.013396 20.269737 2.512771 9.859948 28.525302 0.000000 0.000000 0.000000 16.628762 -1.751960 -38.469368 -8.971095 -16.789073 55.990280 -0.375297 -11.758339 12.788578 -0.019022 -0.888952 2.443275 4.373974 4.992001 4.352976 -5.292807 6.555327 3.699004 -8.084390 3.382289 2.554852 4.319772 21.027508 5.620164 -8.064905 28.135127 -4.795000 -3.401127 14.217843 -0.619963 0.000000 0.000000 0.000000 13.261583 -8.596497 -65.131356 48.630033 -52.427532 25.084181 26.219115 -22.623837 18.974738 0.000000 0.000000 0.000000 -7.125000 0.000000 0.000000 -1.292554 9.013769 -1.074319 0.000000 0.000000 0.000000 -13.469418 15.052495 35.968794 -25.910786 -37.120436 -8.833789 -4.453053 -0.512847 29.707578 0.000000 0.000000 0.000000 7.125000 0.000000 0.000000 29.176070 57.275922 -9.305456
8.438136 18.183052 -13.640913 -182.512801 -17.647828 -167.659486 0.000000 0.000000 0.000000 -21.995917 -3.453459 -15.648301 0.636917 5.105839 14.210776 -0.316428 -15.505440 18.377804 2.434509 9.717922 28.067898 0.000000 0.000000 0.000000 16.153541 -1.474713 -39.050609 -9.019498 -16.820237 56.157442 -0.344091 -12.098191 12.605253 -0.020427 -0.919905 2.528613 4.149657 4.932568 4.434241 -5.379796 6.465992 3.628939 -8.062330 3.324284 2.403836 4.208506 21.105600 5.703003 -8.081320 28.232220 -4.758481 -3.400050 14.270336 -0.627685 0.000000 0.000000 0.000000 12.933984 -8.697746 -65.295598 48.037856 -52.172810 24.615677 26.305017 -22.672048 19.058020 0.000000 0.000000 0.000000 -7.125000 0.000000 0.000000 -1.245898 8.908797 -1.038186 0.000000 0.000000 0.000000 -13.062591 15.959043 34.846415 -25.999645 -37.208369 -8.887382 -4.997341 -0.246113 30.349171 0.000000 0.000000 0.000000 7.125000 0.000000 0.000000 29.167080 57.947006 -9.785637
8.434642 18.190671 -13.505546 -182.558995 -17.959878 -167.731711 0.000000 0.000000 0.000000 -21.677377 -4.917213 -14.188254 0.652520 5.166868 14.385085 -0.384137 -15.105849 16.688111 2.405908 9.663398 27.894482 0.000000 0.000000 0.000000 15.947171 -1.372088 -39.450515 -9.045633 -16.836948 56.247630 -0.325696 -12.072395 12.397615 -0.005424 -0.459956 1.263877 4.263963 4.911853 4.417859 -5.451134 6.441112 3.625061 -8.203031 3.316650 2.427886 4.243477 21.119171 5.792991 -8.179950 28.250738 -4.764812 -3.441117 14.283932 -0.622936 0.000000 0.000000 0.000000 12.785087 -8.907049 -65.609159 47.585656 -51.973779 24.258973 26.372907 -22.616084 18.556754 0.000000 0.000000 0.000000 -7.125000 0.000000 0.000000 -1.149475 9.443026 -0.946629 0.000000 0.000000 0.000000 -12.703197 16.687456 33.916456 -25.935003 -37.144475 -8.848403 -4.968930 -0.799521 30.708386 0.000000 0.000000 0.000000 7.125000 0.000000 0.000000 29.497374 58.250962 -10.130801
8.436856 18.195049 -13.367342 -182.711416 -18.371198 -167.651925 0.000000 0.000000 0.000000 -21.475776 -6.513862 -12.942582 0.680708 5.275089 14.694967 -0.434158 -14.677772 15.034184 2.278239 9.423017 27.127662 0.000000 0.000000 0.000000 15.702404 -1.382166 -39.899950 -9.047677 -16.838290 56.254812 -0.298945 -12.142940 12.142754 -0.004881 -0.414734 1.139588 4.189518 4.820443 4.244018 -5.515358 6.313138 3.630685 -8.214719 3.253096 2.507306 4.352814 21.137010 5.953981 -8.394975 28.277983 -4.823394 -3.533492 14.305964 -0.617908 0.000000 0.000000 0.000000 12.682917 -9.165293 -65.937877 47.114286 -51.762996 23.888210 26.302981 -22.436682 17.617069 0.000000 0.000000 0.000000 -7.125000 0.000000 0.000000 -1.099549 10.476937 -0.880951 0.000000 0.000000 0.000000 -12.281521 17.302595 32.850304 -25.901297 -37.111027 -8.828029 -4.632228 -1.441034 31.095042 0.000000 0.000000 0.000000 7.125000 0.000000 0.000000 30.162062 58.509678 -10.578311
